<svg width="512" height="512" viewBox="0 0 512 512" fill="none" xmlns="http://www.w3.org/2000/svg">
<rect width="512" height="512" fill="white"/>
<path fill-rule="evenodd" clip-rule="evenodd" d="M361.61 259L289 223.32L302.391 197L375 232.68L361.61 259Z" fill="#212121"/>
<path fill-rule="evenodd" clip-rule="evenodd" d="M324.988 103L365.868 143.986H434V188.672C434 200.524 429.304 211.89 420.945 220.27C412.587 228.651 401.25 233.359 389.429 233.359H386.172L359.714 339.461V427H285.429V348.367L218.67 326.053L196.286 370.949V427H122V263.15C122 251.298 126.696 239.932 135.055 231.552C143.413 223.171 154.75 218.463 166.571 218.463H275.636L324.988 103ZM335.012 155.181L302.948 230.199C300.657 235.557 296.848 240.125 291.994 243.334C287.14 246.543 281.454 248.254 275.639 248.254H166.571C162.631 248.254 158.852 249.824 156.066 252.617C153.28 255.41 151.714 259.199 151.714 263.15V397.209H166.571L166.571 370.942C166.57 366.311 167.649 361.735 169.723 357.597C169.726 357.591 169.729 357.585 169.732 357.579L203.616 289.619L294.818 320.099C294.819 320.099 294.817 320.098 294.818 320.099C300.736 322.076 305.887 325.871 309.534 330.944C313.181 336.017 315.144 342.113 315.143 348.367C315.143 348.368 315.143 348.366 315.143 348.367V397.209H330V335.793L362.971 203.568H389.429C393.369 203.568 397.148 201.999 399.934 199.205C402.72 196.412 404.286 192.623 404.286 188.672V173.777H353.56L335.012 155.181Z" fill="#212121"/>
<path fill-rule="evenodd" clip-rule="evenodd" d="M181.75 85V99.875C181.75 119.6 189.586 138.518 203.534 152.466C217.482 166.414 236.4 174.25 256.125 174.25H271V204H256.125C228.509 204 202.025 193.03 182.498 173.502C162.97 153.975 152 127.491 152 99.875V85H181.75Z" fill="#212121"/>
<path fill-rule="evenodd" clip-rule="evenodd" d="M107.667 174V189C107.667 196.956 110.792 204.587 116.356 210.213C121.919 215.839 129.465 219 137.333 219H167V249H137.333C121.597 249 106.505 242.679 95.3783 231.426C84.2512 220.174 78 204.913 78 189V174H107.667Z" fill="#212121"/>
</svg>
